<svg xmlns="http://www.w3.org/2000/svg" version="1.1" xmlns:xlink="http://www.w3.org/1999/xlink" xmlns:svgjs="http://svgjs.dev/svgjs" width="1500" height="420" viewBox="0 0 1500 420"><g transform="matrix(1,0,0,1,-0.9090909090909918,0.5303891291597154)"><svg viewBox="0 0 396 111" data-background-color="#3e373d" preserveAspectRatio="xMidYMid meet" height="420" width="1500" xmlns="http://www.w3.org/2000/svg" xmlns:xlink="http://www.w3.org/1999/xlink"><g id="tight-bounds" transform="matrix(1,0,0,1,0.2400000000000091,-0.14017426984935355)"><svg viewBox="0 0 395.52 111.2803485396987" height="111.2803485396987" width="395.52"><g><svg viewBox="0 0 395.52 111.2803485396987" height="111.2803485396987" width="395.52"><g transform="matrix(1,0,0,1,0,82.40693023147159)"><svg viewBox="0 0 395.52 28.873418308227112" height="28.873418308227112" width="395.52"><g id="textblocktransform"><svg viewBox="0 0 395.52 28.873418308227112" height="28.873418308227112" width="395.52" id="textblock"><g><svg viewBox="0 0 395.52 28.873418308227112" height="28.873418308227112" width="395.52"><g transform="matrix(1,0,0,1,0,0)"><svg width="395.52" viewBox="5.03 -43.07 589.9100000000001 42.39" height="28.873418308227112" data-palette-color="#ed522f"><path d="M14.21-0.68L14.21-0.68 35.79-0.68Q37.16-0.68 37.94-1.42 38.72-2.15 38.72-3.13 38.72-4.1 37.94-4.83 37.16-5.57 35.79-5.57L35.79-5.57 14.21-5.57Q12.84-5.57 12.06-4.83 11.28-4.1 11.28-3.13 11.28-2.15 12.06-1.42 12.84-0.68 14.21-0.68ZM7.96-6.93L7.96-6.93 17.04-6.93Q18.41-6.93 19.19-7.67 19.97-8.4 19.97-9.38 19.97-10.35 19.19-11.08 18.41-11.82 17.04-11.82L17.04-11.82 7.96-11.82Q6.59-11.82 5.81-11.08 5.03-10.35 5.03-9.38 5.03-8.4 5.81-7.67 6.59-6.93 7.96-6.93ZM32.96-6.93L32.96-6.93 42.04-6.93Q43.41-6.93 44.19-7.67 44.97-8.4 44.97-9.38 44.97-10.35 44.19-11.08 43.41-11.82 42.04-11.82L42.04-11.82 32.96-11.82Q31.59-11.82 30.81-11.08 30.03-10.35 30.03-9.38 30.03-8.4 30.81-7.67 31.59-6.93 32.96-6.93ZM7.96-13.18L7.96-13.18 17.04-13.18Q18.41-13.18 19.19-13.92 19.97-14.65 19.97-15.63 19.97-16.6 19.19-17.33 18.41-18.07 17.04-18.07L17.04-18.07 7.96-18.07Q6.59-18.07 5.81-17.33 5.03-16.6 5.03-15.63 5.03-14.65 5.81-13.92 6.59-13.18 7.96-13.18ZM32.96-13.18L32.96-13.18 42.04-13.18Q43.41-13.18 44.19-13.92 44.97-14.65 44.97-15.63 44.97-16.6 44.19-17.33 43.41-18.07 42.04-18.07L42.04-18.07 32.96-18.07Q31.59-18.07 30.81-17.33 30.03-16.6 30.03-15.63 30.03-14.65 30.81-13.92 31.59-13.18 32.96-13.18ZM7.96-19.43L7.96-19.43 17.04-19.43Q18.41-19.43 19.19-20.17 19.97-20.9 19.97-21.88 19.97-22.85 19.19-23.58 18.41-24.32 17.04-24.32L17.04-24.32 7.96-24.32Q6.59-24.32 5.81-23.58 5.03-22.85 5.03-21.88 5.03-20.9 5.81-20.17 6.59-19.43 7.96-19.43ZM26.71-19.43L26.71-19.43 42.04-19.43Q43.41-19.43 44.19-20.17 44.97-20.9 44.97-21.88 44.97-22.85 44.19-23.58 43.41-24.32 42.04-24.32L42.04-24.32 26.71-24.32Q25.34-24.32 24.56-23.58 23.78-22.85 23.78-21.88 23.78-20.9 24.56-20.17 25.34-19.43 26.71-19.43ZM7.96-25.68L7.96-25.68 17.04-25.68Q18.41-25.68 19.19-26.42 19.97-27.15 19.97-28.13 19.97-29.1 19.19-29.83 18.41-30.57 17.04-30.57L17.04-30.57 7.96-30.57Q6.59-30.57 5.81-29.83 5.03-29.1 5.03-28.13 5.03-27.15 5.81-26.42 6.59-25.68 7.96-25.68ZM7.96-31.93L7.96-31.93 17.04-31.93Q18.41-31.93 19.19-32.67 19.97-33.4 19.97-34.38 19.97-35.35 19.19-36.08 18.41-36.82 17.04-36.82L17.04-36.82 7.96-36.82Q6.59-36.82 5.81-36.08 5.03-35.35 5.03-34.38 5.03-33.4 5.81-32.67 6.59-31.93 7.96-31.93ZM32.96-31.93L32.96-31.93 42.04-31.93Q43.41-31.93 44.19-32.67 44.97-33.4 44.97-34.38 44.97-35.35 44.19-36.08 43.41-36.82 42.04-36.82L42.04-36.82 32.96-36.82Q31.59-36.82 30.81-36.08 30.03-35.35 30.03-34.38 30.03-33.4 30.81-32.67 31.59-31.93 32.96-31.93ZM14.21-38.18L14.21-38.18 35.79-38.18Q37.16-38.18 37.94-38.92 38.72-39.65 38.72-40.63 38.72-41.6 37.94-42.33 37.16-43.07 35.79-43.07L35.79-43.07 14.21-43.07Q12.84-43.07 12.06-42.33 11.28-41.6 11.28-40.63 11.28-39.65 12.06-38.92 12.84-38.18 14.21-38.18ZM64.21-0.68L64.21-0.68 92.04-0.68Q93.41-0.68 94.19-1.42 94.97-2.15 94.97-3.13 94.97-4.1 94.19-4.83 93.41-5.57 92.04-5.57L92.04-5.57 64.21-5.57Q62.84-5.57 62.06-4.83 61.28-4.1 61.28-3.13 61.28-2.15 62.06-1.42 62.84-0.68 64.21-0.68ZM57.96-6.93L57.96-6.93 67.04-6.93Q68.41-6.93 69.19-7.67 69.97-8.4 69.97-9.38 69.97-10.35 69.19-11.08 68.41-11.82 67.04-11.82L67.04-11.82 57.96-11.82Q56.59-11.82 55.81-11.08 55.03-10.35 55.03-9.38 55.03-8.4 55.81-7.67 56.59-6.93 57.96-6.93ZM82.96-6.93L82.96-6.93 92.04-6.93Q93.41-6.93 94.19-7.67 94.97-8.4 94.97-9.38 94.97-10.35 94.19-11.08 93.41-11.82 92.04-11.82L92.04-11.82 82.96-11.82Q81.59-11.82 80.81-11.08 80.03-10.35 80.03-9.38 80.03-8.4 80.81-7.67 81.59-6.93 82.96-6.93ZM64.21-13.18L64.21-13.18 92.04-13.18Q93.41-13.18 94.19-13.92 94.97-14.65 94.97-15.63 94.97-16.6 94.19-17.33 93.41-18.07 92.04-18.07L92.04-18.07 64.21-18.07Q62.84-18.07 62.06-17.33 61.28-16.6 61.28-15.63 61.28-14.65 62.06-13.92 62.84-13.18 64.21-13.18ZM82.96-19.43L82.96-19.43 92.04-19.43Q93.41-19.43 94.19-20.17 94.97-20.9 94.97-21.88 94.97-22.85 94.19-23.58 93.41-24.32 92.04-24.32L92.04-24.32 82.96-24.32Q81.59-24.32 80.81-23.58 80.03-22.85 80.03-21.88 80.03-20.9 80.81-20.17 81.59-19.43 82.96-19.43ZM64.21-25.68L64.21-25.68 85.79-25.68Q87.16-25.68 87.94-26.42 88.72-27.15 88.72-28.13 88.72-29.1 87.94-29.83 87.16-30.57 85.79-30.57L85.79-30.57 64.21-30.57Q62.84-30.57 62.06-29.83 61.28-29.1 61.28-28.13 61.28-27.15 62.06-26.42 62.84-25.68 64.21-25.68ZM114.2-0.68L114.2-0.68 135.79-0.68Q137.15-0.68 137.93-1.42 138.72-2.15 138.72-3.13 138.72-4.1 137.93-4.83 137.15-5.57 135.79-5.57L135.79-5.57 114.2-5.57Q112.84-5.57 112.06-4.83 111.27-4.1 111.27-3.13 111.27-2.15 112.06-1.42 112.84-0.68 114.2-0.68ZM120.45-6.93L120.45-6.93 129.54-6.93Q130.9-6.93 131.68-7.67 132.47-8.4 132.47-9.38 132.47-10.35 131.68-11.08 130.9-11.82 129.54-11.82L129.54-11.82 120.45-11.82Q119.09-11.82 118.31-11.08 117.52-10.35 117.52-9.38 117.52-8.4 118.31-7.67 119.09-6.93 120.45-6.93ZM120.45-13.18L120.45-13.18 129.54-13.18Q130.9-13.18 131.68-13.92 132.47-14.65 132.47-15.63 132.47-16.6 131.68-17.33 130.9-18.07 129.54-18.07L129.54-18.07 120.45-18.07Q119.09-18.07 118.31-17.33 117.52-16.6 117.52-15.63 117.52-14.65 118.31-13.92 119.09-13.18 120.45-13.18ZM114.2-19.43L114.2-19.43 129.54-19.43Q130.9-19.43 131.68-20.17 132.47-20.9 132.47-21.88 132.47-22.85 131.68-23.58 130.9-24.32 129.54-24.32L129.54-24.32 114.2-24.32Q112.84-24.32 112.06-23.58 111.27-22.85 111.27-21.88 111.27-20.9 112.06-20.17 112.84-19.43 114.2-19.43ZM120.45-31.93L120.45-31.93 129.54-31.93Q130.9-31.93 131.68-32.67 132.47-33.4 132.47-34.38 132.47-35.35 131.68-36.08 130.9-36.82 129.54-36.82L129.54-36.82 120.45-36.82Q119.09-36.82 118.31-36.08 117.52-35.35 117.52-34.38 117.52-33.4 118.31-32.67 119.09-31.93 120.45-31.93ZM164.2-0.68L164.2-0.68 192.03-0.68Q193.4-0.68 194.18-1.42 194.96-2.15 194.96-3.13 194.96-4.1 194.18-4.83 193.4-5.57 192.03-5.57L192.03-5.57 164.2-5.57Q162.83-5.57 162.05-4.83 161.27-4.1 161.27-3.13 161.27-2.15 162.05-1.42 162.83-0.68 164.2-0.68ZM157.95-6.93L157.95-6.93 167.03-6.93Q168.4-6.93 169.18-7.67 169.96-8.4 169.96-9.38 169.96-10.35 169.18-11.08 168.4-11.82 167.03-11.82L167.03-11.82 157.95-11.82Q156.58-11.82 155.8-11.08 155.02-10.35 155.02-9.38 155.02-8.4 155.8-7.67 156.58-6.93 157.95-6.93ZM182.95-6.93L182.95-6.93 192.03-6.93Q193.4-6.93 194.18-7.67 194.96-8.4 194.96-9.38 194.96-10.35 194.18-11.08 193.4-11.82 192.03-11.82L192.03-11.82 182.95-11.82Q181.58-11.82 180.8-11.08 180.02-10.35 180.02-9.38 180.02-8.4 180.8-7.67 181.58-6.93 182.95-6.93ZM164.2-13.18L164.2-13.18 192.03-13.18Q193.4-13.18 194.18-13.92 194.96-14.65 194.96-15.63 194.96-16.6 194.18-17.33 193.4-18.07 192.03-18.07L192.03-18.07 164.2-18.07Q162.83-18.07 162.05-17.33 161.27-16.6 161.27-15.63 161.27-14.65 162.05-13.92 162.83-13.18 164.2-13.18ZM182.95-19.43L182.95-19.43 192.03-19.43Q193.4-19.43 194.18-20.17 194.96-20.9 194.96-21.88 194.96-22.85 194.18-23.58 193.4-24.32 192.03-24.32L192.03-24.32 182.95-24.32Q181.58-24.32 180.8-23.58 180.02-22.85 180.02-21.88 180.02-20.9 180.8-20.17 181.58-19.43 182.95-19.43ZM164.2-25.68L164.2-25.68 185.78-25.68Q187.15-25.68 187.93-26.42 188.71-27.15 188.71-28.13 188.71-29.1 187.93-29.83 187.15-30.57 185.78-30.57L185.78-30.57 164.2-30.57Q162.83-30.57 162.05-29.83 161.27-29.1 161.27-28.13 161.27-27.15 162.05-26.42 162.83-25.68 164.2-25.68ZM264.2-0.68L264.2-0.68 285.78-0.68Q287.15-0.68 287.93-1.42 288.71-2.15 288.71-3.13 288.71-4.1 287.93-4.83 287.15-5.57 285.78-5.57L285.78-5.57 264.2-5.57Q262.83-5.57 262.05-4.83 261.27-4.1 261.27-3.13 261.27-2.15 262.05-1.42 262.83-0.68 264.2-0.68ZM257.95-6.93L257.95-6.93 267.03-6.93Q268.4-6.93 269.18-7.67 269.96-8.4 269.96-9.38 269.96-10.35 269.18-11.08 268.4-11.82 267.03-11.82L267.03-11.82 257.95-11.82Q256.58-11.82 255.8-11.08 255.02-10.35 255.02-9.38 255.02-8.4 255.8-7.67 256.58-6.93 257.95-6.93ZM282.95-6.93L282.95-6.93 292.03-6.93Q293.4-6.93 294.18-7.67 294.96-8.4 294.96-9.38 294.96-10.35 294.18-11.08 293.4-11.82 292.03-11.82L292.03-11.82 282.95-11.82Q281.58-11.82 280.8-11.08 280.02-10.35 280.02-9.38 280.02-8.4 280.8-7.67 281.58-6.93 282.95-6.93ZM282.95-13.18L282.95-13.18 292.03-13.18Q293.4-13.18 294.18-13.92 294.96-14.65 294.96-15.63 294.96-16.6 294.18-17.33 293.4-18.07 292.03-18.07L292.03-18.07 282.95-18.07Q281.58-18.07 280.8-17.33 280.02-16.6 280.02-15.63 280.02-14.65 280.8-13.92 281.58-13.18 282.95-13.18ZM264.2-19.43L264.2-19.43 285.78-19.43Q287.15-19.43 287.93-20.17 288.71-20.9 288.71-21.88 288.71-22.85 287.93-23.58 287.15-24.32 285.78-24.32L285.78-24.32 264.2-24.32Q262.83-24.32 262.05-23.58 261.27-22.85 261.27-21.88 261.27-20.9 262.05-20.17 262.83-19.43 264.2-19.43ZM257.95-25.68L257.95-25.68 267.03-25.68Q268.4-25.68 269.18-26.42 269.96-27.15 269.96-28.13 269.96-29.1 269.18-29.83 268.4-30.57 267.03-30.57L267.03-30.57 257.95-30.57Q256.58-30.57 255.8-29.83 255.02-29.1 255.02-28.13 255.02-27.15 255.8-26.42 256.58-25.68 257.95-25.68ZM257.95-31.93L257.95-31.93 267.03-31.93Q268.4-31.93 269.18-32.67 269.96-33.4 269.96-34.38 269.96-35.35 269.18-36.08 268.4-36.82 267.03-36.82L267.03-36.82 257.95-36.82Q256.58-36.82 255.8-36.08 255.02-35.35 255.02-34.38 255.02-33.4 255.8-32.67 256.58-31.93 257.95-31.93ZM282.95-31.93L282.95-31.93 292.03-31.93Q293.4-31.93 294.18-32.67 294.96-33.4 294.96-34.38 294.96-35.35 294.18-36.08 293.4-36.82 292.03-36.82L292.03-36.82 282.95-36.82Q281.58-36.82 280.8-36.08 280.02-35.35 280.02-34.38 280.02-33.4 280.8-32.67 281.58-31.93 282.95-31.93ZM264.2-38.18L264.2-38.18 285.78-38.18Q287.15-38.18 287.93-38.92 288.71-39.65 288.71-40.63 288.71-41.6 287.93-42.33 287.15-43.07 285.78-43.07L285.78-43.07 264.2-43.07Q262.83-43.07 262.05-42.33 261.27-41.6 261.27-40.63 261.27-39.65 262.05-38.92 262.83-38.18 264.2-38.18ZM326.69-0.68L326.69-0.68 342.03-0.68Q343.39-0.68 344.17-1.42 344.96-2.15 344.96-3.13 344.96-4.1 344.17-4.83 343.39-5.57 342.03-5.57L342.03-5.57 326.69-5.57Q325.33-5.57 324.55-4.83 323.76-4.1 323.76-3.13 323.76-2.15 324.55-1.42 325.33-0.68 326.69-0.68ZM320.44-6.93L320.44-6.93 329.53-6.93Q330.89-6.93 331.67-7.67 332.46-8.4 332.46-9.38 332.46-10.35 331.67-11.08 330.89-11.82 329.53-11.82L329.53-11.82 320.44-11.82Q319.08-11.82 318.3-11.08 317.51-10.35 317.51-9.38 317.51-8.4 318.3-7.67 319.08-6.93 320.44-6.93ZM320.44-13.18L320.44-13.18 329.53-13.18Q330.89-13.18 331.67-13.92 332.46-14.65 332.46-15.63 332.46-16.6 331.67-17.33 330.89-18.07 329.53-18.07L329.53-18.07 320.44-18.07Q319.08-18.07 318.3-17.33 317.51-16.6 317.51-15.63 317.51-14.65 318.3-13.92 319.08-13.18 320.44-13.18ZM320.44-19.43L320.44-19.43 329.53-19.43Q330.89-19.43 331.67-20.17 332.46-20.9 332.46-21.88 332.46-22.85 331.67-23.58 330.89-24.32 329.53-24.32L329.53-24.32 320.44-24.32Q319.08-24.32 318.3-23.58 317.51-22.85 317.51-21.88 317.51-20.9 318.3-20.17 319.08-19.43 320.44-19.43ZM307.94-25.68L307.94-25.68 342.03-25.68Q343.39-25.68 344.17-26.42 344.96-27.15 344.96-28.13 344.96-29.1 344.17-29.83 343.39-30.57 342.03-30.57L342.03-30.57 307.94-30.57Q306.58-30.57 305.8-29.83 305.01-29.1 305.01-28.13 305.01-27.15 305.8-26.42 306.58-25.68 307.94-25.68ZM320.44-31.93L320.44-31.93 329.53-31.93Q330.89-31.93 331.67-32.67 332.46-33.4 332.46-34.38 332.46-35.35 331.67-36.08 330.89-36.82 329.53-36.82L329.53-36.82 320.44-36.82Q319.08-36.82 318.3-36.08 317.51-35.35 317.51-34.38 317.51-33.4 318.3-32.67 319.08-31.93 320.44-31.93ZM364.19-0.68L364.19-0.68 392.02-0.68Q393.39-0.68 394.17-1.42 394.95-2.15 394.95-3.13 394.95-4.1 394.17-4.83 393.39-5.57 392.02-5.57L392.02-5.57 364.19-5.57Q362.82-5.57 362.04-4.83 361.26-4.1 361.26-3.13 361.26-2.15 362.04-1.42 362.82-0.68 364.19-0.68ZM357.94-6.93L357.94-6.93 367.02-6.93Q368.39-6.93 369.17-7.67 369.95-8.4 369.95-9.38 369.95-10.35 369.17-11.08 368.39-11.82 367.02-11.82L367.02-11.82 357.94-11.82Q356.57-11.82 355.79-11.08 355.01-10.35 355.01-9.38 355.01-8.4 355.79-7.67 356.57-6.93 357.94-6.93ZM382.94-6.93L382.94-6.93 392.02-6.93Q393.39-6.93 394.17-7.67 394.95-8.4 394.95-9.38 394.95-10.35 394.17-11.08 393.39-11.82 392.02-11.82L392.02-11.82 382.94-11.82Q381.57-11.82 380.79-11.08 380.01-10.35 380.01-9.38 380.01-8.4 380.79-7.67 381.57-6.93 382.94-6.93ZM364.19-13.18L364.19-13.18 392.02-13.18Q393.39-13.18 394.17-13.92 394.95-14.65 394.95-15.63 394.95-16.6 394.17-17.33 393.39-18.07 392.02-18.07L392.02-18.07 364.19-18.07Q362.82-18.07 362.04-17.33 361.26-16.6 361.26-15.63 361.26-14.65 362.04-13.92 362.82-13.18 364.19-13.18ZM382.94-19.43L382.94-19.43 392.02-19.43Q393.39-19.43 394.17-20.17 394.95-20.9 394.95-21.88 394.95-22.85 394.17-23.58 393.39-24.32 392.02-24.32L392.02-24.32 382.94-24.32Q381.57-24.32 380.79-23.58 380.01-22.85 380.01-21.88 380.01-20.9 380.79-20.17 381.57-19.43 382.94-19.43ZM364.19-25.68L364.19-25.68 385.77-25.68Q387.14-25.68 387.92-26.42 388.7-27.15 388.7-28.13 388.7-29.1 387.92-29.83 387.14-30.57 385.77-30.57L385.77-30.57 364.19-30.57Q362.82-30.57 362.04-29.83 361.26-29.1 361.26-28.13 361.26-27.15 362.04-26.42 362.82-25.68 364.19-25.68ZM426.69-0.68L426.69-0.68 442.02-0.68Q443.39-0.68 444.17-1.42 444.95-2.15 444.95-3.13 444.95-4.1 444.17-4.83 443.39-5.57 442.02-5.57L442.02-5.57 426.69-5.57Q425.32-5.57 424.54-4.83 423.76-4.1 423.76-3.13 423.76-2.15 424.54-1.42 425.32-0.68 426.69-0.68ZM420.44-6.93L420.44-6.93 429.52-6.93Q430.89-6.93 431.67-7.67 432.45-8.4 432.45-9.38 432.45-10.35 431.67-11.08 430.89-11.82 429.52-11.82L429.52-11.82 420.44-11.82Q419.07-11.82 418.29-11.08 417.51-10.35 417.51-9.38 417.51-8.4 418.29-7.67 419.07-6.93 420.44-6.93ZM420.44-13.18L420.44-13.18 429.52-13.18Q430.89-13.18 431.67-13.92 432.45-14.65 432.45-15.63 432.45-16.6 431.67-17.33 430.89-18.07 429.52-18.07L429.52-18.07 420.44-18.07Q419.07-18.07 418.29-17.33 417.51-16.6 417.51-15.63 417.51-14.65 418.29-13.92 419.07-13.18 420.44-13.18ZM420.44-19.43L420.44-19.43 429.52-19.43Q430.89-19.43 431.67-20.17 432.45-20.9 432.45-21.88 432.45-22.85 431.67-23.58 430.89-24.32 429.52-24.32L429.52-24.32 420.44-24.32Q419.07-24.32 418.29-23.58 417.51-22.85 417.51-21.88 417.51-20.9 418.29-20.17 419.07-19.43 420.44-19.43ZM407.94-25.68L407.94-25.68 442.02-25.68Q443.39-25.68 444.17-26.42 444.95-27.15 444.95-28.13 444.95-29.1 444.17-29.83 443.39-30.57 442.02-30.57L442.02-30.57 407.94-30.57Q406.57-30.57 405.79-29.83 405.01-29.1 405.01-28.13 405.01-27.15 405.79-26.42 406.57-25.68 407.94-25.68ZM420.44-31.93L420.44-31.93 429.52-31.93Q430.89-31.93 431.67-32.67 432.45-33.4 432.45-34.38 432.45-35.35 431.67-36.08 430.89-36.82 429.52-36.82L429.52-36.82 420.44-36.82Q419.07-36.82 418.29-36.08 417.51-35.35 417.51-34.38 417.51-33.4 418.29-32.67 419.07-31.93 420.44-31.93ZM464.19-0.68L464.19-0.68 485.77-0.68Q487.14-0.68 487.92-1.42 488.7-2.15 488.7-3.13 488.7-4.1 487.92-4.83 487.14-5.57 485.77-5.57L485.77-5.57 464.19-5.57Q462.82-5.57 462.04-4.83 461.26-4.1 461.26-3.13 461.26-2.15 462.04-1.42 462.82-0.68 464.19-0.68ZM470.44-6.93L470.44-6.93 479.52-6.93Q480.89-6.93 481.67-7.67 482.45-8.4 482.45-9.38 482.45-10.35 481.67-11.08 480.89-11.82 479.52-11.82L479.52-11.82 470.44-11.82Q469.07-11.82 468.29-11.08 467.51-10.35 467.51-9.38 467.51-8.4 468.29-7.67 469.07-6.93 470.44-6.93ZM470.44-13.18L470.44-13.18 479.52-13.18Q480.89-13.18 481.67-13.92 482.45-14.65 482.45-15.63 482.45-16.6 481.67-17.33 480.89-18.07 479.52-18.07L479.52-18.07 470.44-18.07Q469.07-18.07 468.29-17.33 467.51-16.6 467.51-15.63 467.51-14.65 468.29-13.92 469.07-13.18 470.44-13.18ZM464.19-19.43L464.19-19.43 479.52-19.43Q480.89-19.43 481.67-20.17 482.45-20.9 482.45-21.88 482.45-22.85 481.67-23.58 480.89-24.32 479.52-24.32L479.52-24.32 464.19-24.32Q462.82-24.32 462.04-23.58 461.26-22.85 461.26-21.88 461.26-20.9 462.04-20.17 462.82-19.43 464.19-19.43ZM470.44-31.93L470.44-31.93 479.52-31.93Q480.89-31.93 481.67-32.67 482.45-33.4 482.45-34.38 482.45-35.35 481.67-36.08 480.89-36.82 479.52-36.82L479.52-36.82 470.44-36.82Q469.07-36.82 468.29-36.08 467.51-35.35 467.51-34.38 467.51-33.4 468.29-32.67 469.07-31.93 470.44-31.93ZM514.18-0.68L514.18-0.68 535.77-0.68Q537.13-0.68 537.91-1.42 538.7-2.15 538.7-3.13 538.7-4.1 537.91-4.83 537.13-5.57 535.77-5.57L535.77-5.57 514.18-5.57Q512.82-5.57 512.04-4.83 511.25-4.1 511.25-3.13 511.25-2.15 512.04-1.42 512.82-0.68 514.18-0.68ZM507.93-6.93L507.93-6.93 517.02-6.93Q518.38-6.93 519.16-7.67 519.95-8.4 519.95-9.38 519.95-10.35 519.16-11.08 518.38-11.82 517.02-11.82L517.02-11.82 507.93-11.82Q506.57-11.82 505.79-11.08 505-10.35 505-9.38 505-8.4 505.79-7.67 506.57-6.93 507.93-6.93ZM532.93-6.93L532.93-6.93 542.02-6.93Q543.38-6.93 544.16-7.67 544.95-8.4 544.95-9.38 544.95-10.35 544.16-11.08 543.38-11.82 542.02-11.82L542.02-11.82 532.93-11.82Q531.57-11.82 530.79-11.08 530-10.35 530-9.38 530-8.4 530.79-7.67 531.57-6.93 532.93-6.93ZM507.93-13.18L507.93-13.18 517.02-13.18Q518.38-13.18 519.16-13.92 519.95-14.65 519.95-15.63 519.95-16.6 519.16-17.33 518.38-18.07 517.02-18.07L517.02-18.07 507.93-18.07Q506.57-18.07 505.79-17.33 505-16.6 505-15.63 505-14.65 505.79-13.92 506.57-13.18 507.93-13.18ZM532.93-13.18L532.93-13.18 542.02-13.18Q543.38-13.18 544.16-13.92 544.95-14.65 544.95-15.63 544.95-16.6 544.16-17.33 543.38-18.07 542.02-18.07L542.02-18.07 532.93-18.07Q531.57-18.07 530.79-17.33 530-16.6 530-15.63 530-14.65 530.79-13.92 531.57-13.18 532.93-13.18ZM507.93-19.43L507.93-19.43 517.02-19.43Q518.38-19.43 519.16-20.17 519.95-20.9 519.95-21.88 519.95-22.85 519.16-23.58 518.38-24.32 517.02-24.32L517.02-24.32 507.93-24.32Q506.57-24.32 505.79-23.58 505-22.85 505-21.88 505-20.9 505.79-20.17 506.57-19.43 507.93-19.43ZM532.93-19.43L532.93-19.43 542.02-19.43Q543.38-19.43 544.16-20.17 544.95-20.9 544.95-21.88 544.95-22.85 544.16-23.58 543.38-24.32 542.02-24.32L542.02-24.32 532.93-24.32Q531.57-24.32 530.79-23.58 530-22.85 530-21.88 530-20.9 530.79-20.17 531.57-19.43 532.93-19.43ZM514.18-25.68L514.18-25.68 535.77-25.68Q537.13-25.68 537.91-26.42 538.7-27.15 538.7-28.13 538.7-29.1 537.91-29.83 537.13-30.57 535.77-30.57L535.77-30.57 514.18-30.57Q512.82-30.57 512.04-29.83 511.25-29.1 511.25-28.13 511.25-27.15 512.04-26.42 512.82-25.68 514.18-25.68ZM557.93-0.68L557.93-0.68 567.01-0.68Q568.38-0.68 569.16-1.42 569.94-2.15 569.94-3.13 569.94-4.1 569.16-4.83 568.38-5.57 567.01-5.57L567.01-5.57 557.93-5.57Q556.56-5.57 555.78-4.83 555-4.1 555-3.13 555-2.15 555.78-1.42 556.56-0.68 557.93-0.68ZM582.93-0.68L582.93-0.68 592.01-0.68Q593.38-0.68 594.16-1.42 594.94-2.15 594.94-3.13 594.94-4.1 594.16-4.83 593.38-5.57 592.01-5.57L592.01-5.57 582.93-5.57Q581.56-5.57 580.78-4.83 580-4.1 580-3.13 580-2.15 580.78-1.42 581.56-0.68 582.93-0.68ZM557.93-6.93L557.93-6.93 567.01-6.93Q568.38-6.93 569.16-7.67 569.94-8.4 569.94-9.38 569.94-10.35 569.16-11.08 568.38-11.82 567.01-11.82L567.01-11.82 557.93-11.82Q556.56-11.82 555.78-11.08 555-10.35 555-9.38 555-8.4 555.78-7.67 556.56-6.93 557.93-6.93ZM582.93-6.93L582.93-6.93 592.01-6.93Q593.38-6.93 594.16-7.67 594.94-8.4 594.94-9.38 594.94-10.35 594.16-11.08 593.38-11.82 592.01-11.82L592.01-11.82 582.93-11.82Q581.56-11.82 580.78-11.08 580-10.35 580-9.38 580-8.4 580.78-7.67 581.56-6.93 582.93-6.93ZM557.93-13.18L557.93-13.18 567.01-13.18Q568.38-13.18 569.16-13.92 569.94-14.65 569.94-15.63 569.94-16.6 569.16-17.33 568.38-18.07 567.01-18.07L567.01-18.07 557.93-18.07Q556.56-18.07 555.78-17.33 555-16.6 555-15.63 555-14.65 555.78-13.92 556.56-13.18 557.93-13.18ZM582.93-13.18L582.93-13.18 592.01-13.18Q593.38-13.18 594.16-13.92 594.94-14.65 594.94-15.63 594.94-16.6 594.16-17.33 593.38-18.07 592.01-18.07L592.01-18.07 582.93-18.07Q581.56-18.07 580.78-17.33 580-16.6 580-15.63 580-14.65 580.78-13.92 581.56-13.18 582.93-13.18ZM557.93-19.43L557.93-19.43 567.01-19.43Q568.38-19.43 569.16-20.17 569.94-20.9 569.94-21.88 569.94-22.85 569.16-23.58 568.38-24.32 567.01-24.32L567.01-24.32 557.93-24.32Q556.56-24.32 555.78-23.58 555-22.85 555-21.88 555-20.9 555.78-20.17 556.56-19.43 557.93-19.43ZM582.93-19.43L582.93-19.43 592.01-19.43Q593.38-19.43 594.16-20.17 594.94-20.9 594.94-21.88 594.94-22.85 594.16-23.58 593.38-24.32 592.01-24.32L592.01-24.32 582.93-24.32Q581.56-24.32 580.78-23.58 580-22.85 580-21.88 580-20.9 580.78-20.17 581.56-19.43 582.93-19.43ZM557.93-25.68L557.93-25.68 585.76-25.68Q587.13-25.68 587.91-26.42 588.69-27.15 588.69-28.13 588.69-29.1 587.91-29.83 587.13-30.57 585.76-30.57L585.76-30.57 557.93-30.57Q556.56-30.57 555.78-29.83 555-29.1 555-28.13 555-27.15 555.78-26.42 556.56-25.68 557.93-25.68Z" opacity="1" transform="matrix(1,0,0,1,0,0)" fill="#ed522f" class="wordmark-text-0" data-fill-palette-color="primary" id="text-0"></path></svg></g></svg></g></svg></g></svg></g><g transform="matrix(1,0,0,1,152.45238524999348,0)"><svg viewBox="0 0 90.61522950001299 75.59060913093857" height="75.59060913093857" width="90.61522950001299"><g><svg xmlns="http://www.w3.org/2000/svg" xmlns:xlink="http://www.w3.org/1999/xlink" version="1.1" x="0" y="0" viewBox="1.497 8 97.107 81.006" enable-background="new 0 0 100 100" xml:space="preserve" height="75.59060913093857" width="90.61522950001299" class="icon-icon-0" data-fill-palette-color="accent" id="icon-0"><g fill="#ed522f" data-fill-palette-color="accent"><polygon fill="#ed522f" points="9.598,89.006 98.604,89.006 98.604,16.101 58.201,16.101 58.201,24.201 90.503,24.201    90.503,80.905 17.698,80.905 17.698,56.604 9.598,56.604  " data-fill-palette-color="accent"></polygon><path fill="#ed522f" d="M1.497 48.503h8.101v-8.101h8.101v8.101h8.101v-8.101h8.101v8.101H42v-8.101h8.101v8.101h8.101V32.302h-8.101V16.101H42V8h-8.101v8.101h-8.101V8h-8.101v8.101H9.598v16.201H1.497V48.503zM17.698 32.302v-8.101h8.101v8.101H17.698zM33.899 32.302v-8.101H42v8.101H33.899z" data-fill-palette-color="accent"></path></g></svg></g></svg></g><g></g></svg></g><defs></defs></svg><rect width="395.52" height="111.2803485396987" fill="none" stroke="none" visibility="hidden"></rect></g></svg></g></svg>